<svg t="1759023914222" class="icon" viewBox="0 0 1024 1024" version="1.1" xmlns="http://www.w3.org/2000/svg" p-id="23087" width="200" height="200">
  <!-- 最外层大圆形（原浅黄色改为白色） -->
  <path d="M900.370142 622.196913c0 214.483654-173.870362 388.362079-388.362079 388.362079-214.507843 0-388.378205-173.878425-388.378205-388.362079 0-214.507843 173.870362-608.755906 388.378205-608.755905 214.491717 0 388.362079 394.248063 388.362079 608.755905z" fill="#FFFFFF" p-id="23088"></path>
  <!-- 右侧半圆（原浅米色改为浅灰色） -->
  <path d="M512.008063 13.441008v997.117984c214.491717 0 388.362079-173.878425 388.362079-388.362079 0-214.507843-173.870362-608.755906-388.362079-608.755905z" fill="#F5F5F5" p-id="23089"></path>
  <!-- 左侧装饰图形（原浅绿色改为深灰色） -->
  <path d="M271.343874 842.526236c35.84 39.161953 75.308346 58.343811 54.328441 77.541795-20.996031 19.197984-67.051843 2.99137-102.899906-36.170582-35.823874-39.170016-47.861921-86.49978-26.865889-105.697764 20.979906-19.181858 39.61348 25.132346 75.437354 64.326551z" fill="#666666" p-id="23090"></path>
  <!-- 右侧装饰图形（原深绿色改为深灰色） -->
  <path d="M752.656126 842.526236c-35.84 39.161953-75.308346 58.343811-54.328441 77.541795 20.996031 19.197984 67.051843 2.99137 102.899906-36.170582 35.823874-39.170016 47.861921-86.49978 26.865889-105.697764-20.979906-19.181858-39.61348 25.132346-75.437354 64.326551z" fill="#444444" p-id="23091"></path>
  <!-- 中间圆环（原深灰色保留，微调为标准黑色） -->
  <path d="M512.008063 1022.65348c-220.821165 0-400.472693-179.643465-400.472693-400.456567 0-112.414236 45.249512-265.788472 115.292724-390.732598C310.013984 83.073008 411.293228 1.34652 512.008063 1.34652c100.706772 0 201.986016 81.726488 285.163843 230.117795 70.043213 124.944126 115.292724 278.318362 115.292724 390.732598 0 220.813102-179.643465 400.456567-400.456567 400.456567z m0-997.117984c-53.038362 0-157.865323 28.293039-264.079118 217.757228C179.764409 364.890709 135.724346 513.612598 135.724346 622.196913c0 207.476913 168.806803 376.267591 376.283717 376.267591 207.46885 0 376.267591-168.790677 376.267591-376.267591 0-108.576252-44.040063-257.306205-112.204599-378.904189C669.865323 53.828535 565.038362 25.535496 512.008063 25.535496z" fill="#000000" p-id="23092"></path>
  <!-- 右侧大装饰图形（原浅绿色改为中灰色） -->
  <path d="M740.102047 722.742425c-50.538835 109.455118-153.729008 169.451843-230.504819 134.006929-76.775811-35.444913-41.105134-99.892409 9.433701-209.35559 50.522709-109.438992 96.772031-222.44989 173.53978-186.988851 76.775811 35.428787 98.054047 152.890457 47.531338 262.337512z" fill="#888888" p-id="23093"></path>
  <!-- 右侧装饰图形细节（原深绿色改为深灰色） -->
  <path d="M692.578772 460.404913c-76.767748-35.452976-123.025134 77.549858-173.53978 186.988851l-7.022866 15.158425v195.196976c76.501669 33.130835 178.09537-26.680441 228.093984-135.00674 50.514646-109.447055 29.236409-226.908724-47.531338-262.337512z" fill="#555555" p-id="23094"></path>
  <!-- 左侧小圆点1（原浅绿色改为中灰色） -->
  <path d="M288.679307 312.150677m-24.672756 0a24.672756 24.672756 0 1 0 49.345512 0 24.672756 24.672756 0 1 0-49.345512 0Z" fill="#777777" p-id="23095"></path>
  <!-- 左侧小圆点2（原浅绿色改为浅灰色） -->
  <path d="M377.710866 194.132661m-9.651401 0a9.651402 9.651402 0 1 0 19.302803 0 9.651402 9.651402 0 1 0-19.302803 0Z" fill="#999999" p-id="23096"></path>
  <!-- 左侧小圆点3（原浅绿色改为中灰色） -->
  <path d="M327.301039 453.761008m-13.948976 0a13.948976 13.948976 0 1 0 27.897953 0 13.948976 13.948976 0 1 0-27.897953 0Z" fill="#777777" p-id="23097"></path>
  <!-- 上方小圆点1（原深绿色改为深灰色） -->
  <path d="M544.727685 914.206236m-13.940913 0a13.940913 13.940913 0 1 0 27.881826 0 13.940913 13.940913 0 1 0-27.881826 0Z" fill="#444444" p-id="23098"></path>
  <!-- 上方小圆点2（原浅绿色改为中灰色） -->
  <path d="M479.086866 900.25726m-13.940913 0a13.940913 13.940913 0 1 0 27.881827 0 13.940913 13.940913 0 1 0-27.881827 0Z" fill="#666666" p-id="23099"></path>
  <!-- 右侧小圆点1（原深绿色改为深灰色） -->
  <path d="M677.662236 243.050835m-28.518803 0a28.518803 28.518803 0 1 0 57.037606 0 28.518803 28.518803 0 1 0-57.037606 0Z" fill="#444444" p-id="23100"></path>
  <!-- 右侧小圆点2（原深绿色改为深灰色） -->
  <path d="M758.566299 364.713323m-27.897953 0a27.897953 27.897953 0 1 0 55.795906 0 27.897953 27.897953 0 1 0-55.795906 0Z" fill="#444444" p-id="23101"></path>
  <!-- 左侧小圆点4（原浅绿色改为中灰色） -->
  <path d="M361.504252 738.682961m-27.88989 0a27.88989 27.88989 0 1 0 55.77978 0 27.88989 27.88989 0 1 0-55.77978 0Z" fill="#666666" p-id="23102"></path>
  <!-- 中间圆形（原浅绿色改为浅灰色） -->
  <path d="M542.042709 329.445795c0 65.37474 28.204346 118.38085-37.178457 118.380851s-118.38085-52.998047-118.38085-118.380851 52.989984-118.405039 118.38085-118.405039 37.178457 53.030299 37.178457 118.405039z" fill="#E0E0E0" p-id="23103"></path>
  <!-- 中间竖条（原深绿色改为深灰色） -->
  <path d="M512.008063 447.560567c56.045858-3.886362 30.034646-55.263748 30.034646-118.106709s26.019276-114.244535-30.034646-118.130897v236.237606z" fill="#333333" p-id="23104"></path>
</svg>