<?xml version="1.0" standalone="no"?><!DOCTYPE svg PUBLIC "-//W3C//DTD SVG 1.1//EN" "http://www.w3.org/Graphics/SVG/1.1/DTD/svg11.dtd"><svg t="1759024438351" class="icon" viewBox="0 0 1024 1024" version="1.1" xmlns="http://www.w3.org/2000/svg" p-id="26490" xmlns:xlink="http://www.w3.org/1999/xlink" width="200" height="200"><path d="M85.427416 394.77251H127.952958v42.525542H85.427416zM85.427416 437.298052H127.952958v42.525542H85.427416zM85.427416 480.199926H127.952958v42.525543H85.427416zM85.427416 522.725469H127.952958v42.525542H85.427416z" fill="#2c2c2c" p-id="26491"></path><path d="M85.427416 565.251011H127.952958v42.525542H85.427416zM85.427416 608.152885H127.952958v42.525542H85.427416zM106.502021 650.678427h42.525542v42.525542H106.502021zM149.403896 650.678427H191.929438v42.525542H149.403896zM191.929438 629.22749h42.525542v42.525542H191.929438z" fill="#2c2c2c" p-id="26492"></path><path d="M191.929438 586.701948h42.525542v42.525542H191.929438zM191.929438 544.176406h42.525542v42.525542H191.929438zM191.929438 501.274531h42.525542v42.525543H191.929438z" fill="#2c2c2c" p-id="26493"></path><path d="M191.929438 458.748989h42.525542v42.525542H191.929438zM191.929438 416.223447h42.525542v42.525542H191.929438zM191.929438 373.321573h42.525542v42.525542H191.929438zM191.929438 330.796031h42.525542v42.525542H191.929438zM213.380375 287.894157H255.905917v42.525542H213.380375zM255.905917 287.894157h42.525542v42.525542H255.905917zM298.807791 309.345094h42.525542v42.525542H298.807791zM298.807791 351.870636h42.525542v42.525542H298.807791zM298.807791 394.77251h42.525542v42.525542H298.807791zM298.807791 437.298052h42.525542v42.525542H298.807791zM341.333333 437.298052H383.858875v42.525542H341.333333zM383.858875 437.298052h42.525542v42.525542H383.858875zM426.76075 437.298052h42.525542v42.525542h-42.525542zM469.286292 437.298052H511.811834v42.525542h-42.525542zM298.807791 480.199926h42.525542v42.525543H298.807791zM298.807791 522.725469h42.525542v42.525542H298.807791zM341.333333 544.176406H383.858875v42.525542H341.333333zM383.858875 544.176406h42.525542v42.525542H383.858875zM426.76075 544.176406h42.525542v42.525542h-42.525542zM469.286292 544.176406H511.811834v42.525542h-42.525542z" fill="#2c2c2c" p-id="26494"></path><path d="M298.807791 565.251011h42.525542v42.525542H298.807791zM298.807791 608.152885h42.525542v42.525542H298.807791zM298.807791 650.678427h42.525542v42.525542H298.807791zM277.356854 693.580301H319.882396v42.525542H277.356854zM234.831312 693.580301h42.525542v42.525542H234.831312zM191.929438 672.129364h42.525542v42.525542H191.929438zM149.403896 351.870636H191.929438v42.525542H149.403896zM106.502021 351.870636h42.525542v42.525542H106.502021zM896.047042 394.77251h42.525542v42.525542h-42.525542zM896.047042 437.298052h42.525542v42.525542h-42.525542zM896.047042 480.199926h42.525542v42.525543h-42.525542zM896.047042 522.725469h42.525542v42.525542h-42.525542z" fill="#2c2c2c" p-id="26495"></path><path d="M896.047042 565.251011h42.525542v42.525542h-42.525542zM896.047042 608.152885h42.525542v42.525542h-42.525542zM874.596104 650.678427h42.525542v42.525542h-42.525542zM832.070562 650.678427h42.525542v42.525542h-42.525542z" fill="#2c2c2c" p-id="26496"></path><path d="M789.54502 629.22749h42.525542v42.525542h-42.525542z" fill="#2c2c2c" p-id="26497"></path><path d="M789.54502 586.701948h42.525542v42.525542h-42.525542zM789.54502 544.176406h42.525542v42.525542h-42.525542zM789.54502 501.274531h42.525542v42.525543h-42.525542z" fill="#2c2c2c" p-id="26498"></path><path d="M789.54502 458.748989h42.525542v42.525542h-42.525542zM789.54502 416.223447h42.525542v42.525542h-42.525542zM789.54502 373.321573h42.525542v42.525542h-42.525542zM789.54502 330.796031h42.525542v42.525542h-42.525542zM768.094083 287.894157h42.525542v42.525542h-42.525542z" fill="#2c2c2c" p-id="26499"></path><path d="M725.568541 287.894157h42.525542v42.525542h-42.525542zM682.666667 309.345094h42.525542v42.525542h-42.525542zM682.666667 351.870636h42.525542v42.525542h-42.525542zM682.666667 394.77251h42.525542v42.525542h-42.525542zM682.666667 437.298052h42.525542v42.525542h-42.525542zM640.141125 437.298052h42.525542v42.525542h-42.525542zM597.23925 437.298052H639.764792v42.525542h-42.525542z" fill="#2c2c2c" p-id="26500"></path><path d="M554.713708 437.298052h42.525542v42.525542h-42.525542zM512.188166 437.298052h42.525542v42.525542h-42.525542zM682.666667 480.199926h42.525542v42.525543h-42.525542zM682.666667 522.725469h42.525542v42.525542h-42.525542zM640.141125 544.176406h42.525542v42.525542h-42.525542zM597.23925 544.176406H639.764792v42.525542h-42.525542z" fill="#2c2c2c" p-id="26501"></path><path d="M554.713708 544.176406h42.525542v42.525542h-42.525542zM512.188166 544.176406h42.525542v42.525542h-42.525542zM682.666667 565.251011h42.525542v42.525542h-42.525542zM682.666667 608.152885h42.525542v42.525542h-42.525542zM682.666667 650.678427h42.525542v42.525542h-42.525542zM704.117604 693.580301h42.525542v42.525542h-42.525542zM746.643146 693.580301h42.525542v42.525542h-42.525542zM789.54502 672.129364h42.525542v42.525542h-42.525542zM832.070562 351.870636h42.525542v42.525542h-42.525542zM874.596104 351.870636h42.525542v42.525542h-42.525542z" fill="#2c2c2c" p-id="26502"></path></svg>