<?xml version="1.0" standalone="no"?><!DOCTYPE svg PUBLIC "-//W3C//DTD SVG 1.1//EN" "http://www.w3.org/Graphics/SVG/1.1/DTD/svg11.dtd"><svg t="1759023474699" class="icon" viewBox="0 0 1024 1024" version="1.1" xmlns="http://www.w3.org/2000/svg" p-id="11156" xmlns:xlink="http://www.w3.org/1999/xlink" width="200" height="200"><path d="M864.6 336.2c-9.2-42.4-27.8-83-55.3-120.6-28-38.3-64.5-72.5-108.6-101.8-10-6.6-22.3-13.2-36.7-19.5-47-20.6-99.5-31.4-152-31.4S407 73.8 360 94.3c-14.4 6.3-26.8 12.9-36.7 19.5-44.1 29.3-80.6 63.5-108.6 101.8-27.5 37.6-46.1 78.2-55.3 120.6-9.2 42.5-8.6 85.6 1.7 127.9 10.5 43.2 30.9 84.4 60.6 122.7 43.7 56.3 74.8 96 92.9 118.4 5.9 7.3 17.2 8.8 25.3 3.5l28.7-19.1c7.8-5.2 9.5-15.1 3.8-22.2-17.6-21.8-48.4-61-91.7-116.9-99-127.6-63.9-286.1 85.4-385.3 6.4-4.3 15-8.8 25.5-13.4 75.4-33 165.4-33 240.9 0 10.5 4.6 19 9.1 25.5 13.4 149.3 99.2 184.5 257.7 85.5 385.3-43.3 55.9-74 95.1-91.6 116.9-5.7 7.1-4 16.9 3.8 22.2l28.7 19.1c8 5.4 19.4 3.8 25.3-3.5 18-22.4 49.1-62 92.8-118.4 29.6-38.2 50-79.5 60.5-122.7 10.2-42.3 10.8-85.3 1.6-127.9zM633.2 767.7H390.8c-8.8 0-16 7.2-16 16v32c0 8.8 7.2 16 16 16h242.5c8.8 0 16-7.2 16-16v-32c-0.1-8.8-7.2-16-16.1-16zM633.2 895.6H390.8c-8.8 0-16 7.2-16 16v32c0 8.8 7.2 16 16 16h242.5c8.8 0 16-7.2 16-16v-32c-0.1-8.8-7.2-16-16.1-16z" p-id="11157" fill="#2c2c2c"></path><path d="M598.3 253L574 230.4c-6.7-6.2-17.6-6.2-24.3 0L380.4 387.9c-3.3 2.6-5.5 6.4-5.9 10.7v0.1c0 0.5-0.1 0.9-0.1 1.4v32c0 8.8 7.7 16 17.2 16h150.2L425.4 556.4c-6.7 6.2-6.7 16.4 0 22.6l24.3 22.6c6.7 6.2 17.6 6.2 24.3 0L642.3 445c4.4-2.9 7.2-7.6 7.2-13v-32c0-8.8-7.7-16-17.2-16H481.9l116.4-108.4c6.7-6.2 6.7-16.3 0-22.6z" p-id="11158" fill="#2c2c2c"></path></svg>