<?xml version="1.0" standalone="no"?><!DOCTYPE svg PUBLIC "-//W3C//DTD SVG 1.1//EN" "http://www.w3.org/Graphics/SVG/1.1/DTD/svg11.dtd"><svg t="1759024624469" class="icon" viewBox="0 0 1024 1024" version="1.1" xmlns="http://www.w3.org/2000/svg" p-id="32083" xmlns:xlink="http://www.w3.org/1999/xlink" width="200" height="200"><path d="M512.9 108.6c16.9 0 31.6 9.9 38.5 24.2-11.2-1.8-24.3-3.5-38.5-3.5-14.3 0-27.4 1.7-38.5 3.5 6.9-14.3 21.5-24.2 38.5-24.2m0-44c-48 0-86.8 38.9-86.8 86.8 0 22.9 8.9 28.9 23.4 28.9 15.8 0 38.4-7.1 63.4-7.1s47.5 7.1 63.4 7.1c14.5 0 23.4-6 23.4-28.9 0-47.9-38.9-86.8-86.8-86.8z" p-id="32084" fill="#2c2c2c"></path><path d="M512.9 175.3c40.7 0 80.1 8 117.3 23.7 35.9 15.2 68.1 36.9 95.8 64.6 27.7 27.7 49.4 59.9 64.6 95.8 15.7 37.1 23.7 76.6 23.7 117.3v44h1.4v394.8H210.1V520.6h1.4v-44c0-40.7 8-80.1 23.7-117.3 15.2-35.9 36.9-68.1 64.6-95.8 27.7-27.7 59.9-49.4 95.8-64.6 37.1-15.6 76.6-23.6 117.3-23.6m0-44c-190.7 0-345.3 154.6-345.3 345.3h-1.4v452.2c0 16.9 13.7 30.6 30.6 30.6H829c16.9 0 30.6-13.7 30.6-30.6V476.6h-1.4c-0.1-190.7-154.7-345.3-345.3-345.3z" p-id="32085" fill="#2c2c2c"></path><path d="M164.5 689v154h-24V689h24m28.9-44h-81.8c-8.3 0-15.1 6.8-15.1 15.1V872c0 8.3 6.8 15.1 15.1 15.1h81.8c8.3 0 15.1-6.8 15.1-15.1V660.1c0-8.3-6.7-15.1-15.1-15.1zM883.5 689v154h-24V689h24m28.9-44h-81.8c-8.3 0-15.1 6.8-15.1 15.1V872c0 8.3 6.8 15.1 15.1 15.1h81.8c8.3 0 15.1-6.8 15.1-15.1V660.1c0-8.3-6.7-15.1-15.1-15.1zM717.9 705.2v130.9h-410V705.2h410m35.6-44H272.2c-4.6 0-8.4 3.7-8.4 8.4v202.2c0 4.6 3.7 8.4 8.4 8.4h481.3c4.6 0 8.4-3.7 8.4-8.4V669.5c0-4.6-3.8-8.3-8.4-8.3zM600.3 390v60.9h-175V390h175m22.7-44H402.7c-11.8 0-21.3 9.6-21.3 21.3v106.3c0 11.8 9.6 21.3 21.3 21.3H623c11.8 0 21.3-9.6 21.3-21.3V367.3c0-11.7-9.5-21.3-21.3-21.3z" p-id="32086" fill="#2c2c2c"></path><path d="M524.9 423.8h-24c-5.5 0-10 4.5-10 10v110.3c0 5.5 4.5 10 10 10h24c5.5 0 10-4.5 10-10V433.8c0-5.5-4.5-10-10-10z" p-id="32087" fill="#2c2c2c"></path></svg>