<?xml version="1.0" standalone="no"?><!DOCTYPE svg PUBLIC "-//W3C//DTD SVG 1.1//EN" "http://www.w3.org/Graphics/SVG/1.1/DTD/svg11.dtd"><svg t="1759024717040" class="icon" viewBox="0 0 1161 1024" version="1.1" xmlns="http://www.w3.org/2000/svg" p-id="35019" xmlns:xlink="http://www.w3.org/1999/xlink" width="226.7578125" height="200"><path d="M862.344533 326.997333v434.858667a34.133333 34.133333 0 0 0 58.368 24.029867l216.541867-218.180267a34.133333 34.133333 0 0 0-0.068267-48.196267l-216.610133-216.610133a34.133333 34.133333 0 0 0-58.231467 24.1664zM1079.364267 157.013333a54.613333 54.613333 0 1 0 0-109.226666h-1024a54.613333 54.613333 0 1 0 0 109.226666h1024z m-409.6 273.066667a54.613333 54.613333 0 1 0 0-109.226667H54.613333a54.613333 54.613333 0 1 0 0 109.226667H669.696z m0 273.066667a54.613333 54.613333 0 1 0 0-109.226667H54.613333a54.613333 54.613333 0 1 0 0 109.226667H669.696z m389.051733 273.066666a54.613333 54.613333 0 1 0 0-109.226666H54.545067a54.613333 54.613333 0 1 0 0 109.226666H1058.816z" fill="#2c2c2c" p-id="35020"></path></svg>