<?xml version="1.0" standalone="no"?><!DOCTYPE svg PUBLIC "-//W3C//DTD SVG 1.1//EN" "http://www.w3.org/Graphics/SVG/1.1/DTD/svg11.dtd"><svg t="1759024662922" class="icon" viewBox="0 0 1024 1024" version="1.1" xmlns="http://www.w3.org/2000/svg" p-id="33160" xmlns:xlink="http://www.w3.org/1999/xlink" width="200" height="200"><path d="M120.123733 60.629333h296.751787c3.636907 0 7.227733 0.730453 10.763947 2.193067h0.093866c3.495253 1.455787 6.570667 3.495253 9.186987 6.111573l31.634773 31.634774c2.6112 2.6112 4.652373 5.684907 6.111574 9.186986v0.093867c1.4592 3.531093 2.193067 7.12192 2.193066 10.763947V417.365333c0 3.636907-0.730453 7.227733-2.193066 10.763947v0.093867c-1.457493 3.49696-3.49696 6.572373-6.111574 9.186986l-31.634773 31.634774c-2.614613 2.614613-5.690027 4.65408-9.186987 6.111573h-0.093866c-3.536213 1.462613-7.12704 2.193067-10.763947 2.193067H120.123733c-3.642027 0-7.232853-0.733867-10.763946-2.193067h-0.093867c-3.50208-1.4592-6.575787-3.500373-9.186987-6.111573l-31.634773-31.634774c-2.61632-2.61632-4.655787-5.691733-6.111573-9.186986v-0.093867c-1.462613-3.536213-2.193067-7.12704-2.193067-10.763947V120.613547c0-3.642027 0.733867-7.232853 2.193067-10.763947v-0.093867c1.4592-3.498667 3.49696-6.572373 6.111573-9.186986L100.078933 68.933973c2.614613-2.614613 5.68832-4.652373 9.186987-6.111573h0.093867c3.531093-1.4592 7.12192-2.193067 10.763946-2.193067z m288.54784 48.165547H128.32768L108.305067 128.817493v280.343894l20.022613 20.022613h280.343893l20.022614-20.022613V128.817493l-20.022614-20.022613zM606.28992 60.629333h296.751787c3.642027 0 7.232853 0.733867 10.763946 2.193067h0.093867c3.498667 1.4592 6.572373 3.49696 9.186987 6.111573l31.634773 31.634774c2.614613 2.614613 4.652373 5.68832 6.111573 9.186986v0.093867c1.4592 3.531093 2.193067 7.12192 2.193067 10.763947V417.365333c0 3.636907-0.730453 7.227733-2.193067 10.763947v0.093867c-1.455787 3.495253-3.495253 6.570667-6.111573 9.186986l-31.634773 31.634774c-2.6112 2.6112-5.684907 4.652373-9.186987 6.111573h-0.093867c-3.531093 1.4592-7.12192 2.193067-10.763946 2.193067H606.28992c-3.636907 0-7.227733-0.730453-10.763947-2.193067h-0.093866c-3.49696-1.457493-6.572373-3.49696-9.186987-6.111573l-31.634773-31.634774c-2.614613-2.614613-4.65408-5.690027-6.111574-9.186986v-0.093867c-1.462613-3.536213-2.193067-7.12704-2.193066-10.763947V120.613547c0-3.642027 0.733867-7.232853 2.193066-10.763947v-0.093867c1.4592-3.50208 3.500373-6.575787 6.111574-9.186986l31.634773-31.634774c2.61632-2.61632 5.691733-4.655787 9.186987-6.111573h0.093866c3.536213-1.462613 7.12704-2.193067 10.763947-2.193067z m288.54784 48.165547H614.493867l-20.022614 20.022613v280.343894l20.022614 20.022613h280.343893l20.022613-20.022613V128.817493l-20.022613-20.022613zM120.123733 546.404693h296.751787c3.636907 0 7.227733 0.730453 10.763947 2.193067h0.093866c3.49696 1.457493 6.572373 3.49696 9.186987 6.111573l31.634773 31.634774c2.614613 2.614613 4.65408 5.690027 6.111574 9.186986v0.093867c1.462613 3.536213 2.193067 7.12704 2.193066 10.763947v296.751786c0 3.642027-0.733867 7.232853-2.193066 10.763947v0.093867c-1.4592 3.50208-3.500373 6.575787-6.111574 9.186986l-31.634773 31.634774c-2.61632 2.61632-5.691733 4.655787-9.186987 6.111573h-0.093866c-3.536213 1.462613-7.12704 2.193067-10.763947 2.193067H120.123733c-3.642027 0-7.232853-0.733867-10.763946-2.193067h-0.093867c-3.498667-1.4592-6.572373-3.49696-9.186987-6.111573l-31.634773-31.634774c-2.614613-2.614613-4.652373-5.68832-6.111573-9.186986v-0.093867c-1.4592-3.531093-2.193067-7.12192-2.193067-10.763947V606.388907c0-3.636907 0.730453-7.227733 2.193067-10.763947v-0.093867c1.455787-3.495253 3.495253-6.570667 6.111573-9.186986l31.634773-31.634774c2.6112-2.6112 5.684907-4.652373 9.186987-6.111573h0.093867c3.531093-1.4592 7.12192-2.193067 10.763946-2.193067z m288.54784 48.165547H128.32768L108.305067 614.592853v280.343894l20.022613 20.022613h280.343893l20.022614-20.022613V614.592853l-20.022614-20.022613zM606.28992 546.404693h296.751787c3.642027 0 7.232853 0.733867 10.763946 2.193067h0.093867c3.50208 1.4592 6.575787 3.500373 9.186987 6.111573l31.634773 31.634774c2.61632 2.61632 4.655787 5.691733 6.111573 9.186986v0.093867c1.462613 3.536213 2.193067 7.12704 2.193067 10.763947v296.751786c0 3.642027-0.733867 7.232853-2.193067 10.763947v0.093867c-1.4592 3.498667-3.49696 6.572373-6.111573 9.186986l-31.634773 31.634774c-2.614613 2.614613-5.68832 4.652373-9.186987 6.111573h-0.093867c-3.531093 1.4592-7.12192 2.193067-10.763946 2.193067H606.28992c-3.636907 0-7.227733-0.730453-10.763947-2.193067h-0.093866c-3.495253-1.455787-6.570667-3.495253-9.186987-6.111573l-31.634773-31.634774c-2.6112-2.6112-4.652373-5.684907-6.111574-9.186986v-0.093867c-1.4592-3.531093-2.193067-7.12192-2.193066-10.763947V606.388907c0-3.636907 0.730453-7.227733 2.193066-10.763947v-0.093867c1.457493-3.49696 3.49696-6.572373 6.111574-9.186986l31.634773-31.634774c2.614613-2.614613 5.690027-4.65408 9.186987-6.111573h0.093866c3.536213-1.462613 7.12704-2.193067 10.763947-2.193067z m288.54784 48.165547H614.493867l-20.022614 20.022613v280.343894l20.022614 20.022613h280.343893l20.022613-20.022613V614.592853l-20.022613-20.022613z" p-id="33161" fill="#2c2c2c"></path></svg>