<svg class="icon" viewBox="0 0 1024 1024" xmlns="http://www.w3.org/2000/svg" width="200" height="200"><path d="M900.37 622.197c0 214.484-173.87 388.362-388.362 388.362-214.508 0-388.378-173.878-388.378-388.362 0-214.508 173.87-608.756 388.378-608.756 214.492 0 388.362 394.248 388.362 608.756z" fill="#FFF"/><path d="M512.008 13.441v997.118c214.492 0 388.362-173.878 388.362-388.362 0-214.508-173.87-608.756-388.362-608.756z" fill="#F5F5F5"/><path d="M271.344 842.526c35.84 39.162 75.308 58.344 54.328 77.542-20.996 19.198-67.052 2.991-102.9-36.17-35.823-39.17-47.862-86.5-26.865-105.698 20.98-19.182 39.613 25.132 75.437 64.326z" fill="#666"/><path d="M752.656 842.526c-35.84 39.162-75.308 58.344-54.328 77.542 20.996 19.198 67.052 2.991 102.9-36.17 35.823-39.17 47.862-86.5 26.865-105.698-20.98-19.182-39.613 25.132-75.437 64.326z" fill="#444"/><path d="M512.008 1022.653c-220.821 0-400.473-179.643-400.473-400.456 0-112.414 45.25-265.789 115.293-390.733C310.014 83.073 411.293 1.347 512.008 1.347c100.707 0 201.986 81.726 285.164 230.117 70.043 124.944 115.293 278.319 115.293 390.733 0 220.813-179.644 400.456-400.457 400.456zm0-997.118c-53.038 0-157.865 28.294-264.08 217.758-68.164 121.598-112.204 270.32-112.204 378.904 0 207.477 168.807 376.268 376.284 376.268 207.469 0 376.268-168.791 376.268-376.268 0-108.576-44.04-257.306-112.205-378.904C669.865 53.829 565.038 25.535 512.008 25.535z"/><path d="M740.102 722.742C689.563 832.198 586.373 892.194 509.597 856.75c-76.776-35.445-41.105-99.892 9.434-209.355 50.523-109.44 96.772-222.45 173.54-186.99 76.776 35.43 98.054 152.891 47.531 262.338z" fill="#888"/><path d="M692.579 460.405c-76.768-35.453-123.025 77.55-173.54 186.989l-7.023 15.158V857.75c76.502 33.131 178.095-26.68 228.094-135.007 50.515-109.447 29.237-226.908-47.531-262.337z" fill="#555"/><path d="M264.007 312.15a24.673 24.673 0 1 0 49.345 0 24.673 24.673 0 1 0-49.345 0Z" fill="#777"/><path d="M368.06 194.133a9.651 9.651 0 1 0 19.302 0 9.651 9.651 0 1 0-19.303 0Z" fill="#999"/><path d="M313.352 453.761a13.949 13.949 0 1 0 27.898 0 13.949 13.949 0 1 0-27.898 0Z" fill="#777"/><path d="M530.787 914.206a13.94 13.94 0 1 0 27.882 0 13.94 13.94 0 1 0-27.882 0Z" fill="#444"/><path d="M465.146 900.257a13.94 13.94 0 1 0 27.882 0 13.94 13.94 0 1 0-27.882 0Z" fill="#666"/><path d="M649.143 243.05a28.519 28.519 0 1 0 57.038 0 28.519 28.519 0 1 0-57.038 0Zm81.525 121.663a27.898 27.898 0 1 0 55.796 0 27.898 27.898 0 1 0-55.796 0Z" fill="#444"/><path d="M333.614 738.683a27.89 27.89 0 1 0 55.78 0 27.89 27.89 0 1 0-55.78 0Z" fill="#666"/><path d="M542.043 329.446c0 65.375 28.204 118.38-37.179 118.38s-118.38-52.997-118.38-118.38 52.99-118.405 118.38-118.405 37.179 53.03 37.179 118.405z" fill="#E0E0E0"/><path d="M512.008 447.56c56.046-3.886 30.035-55.263 30.035-118.106s26.019-114.245-30.035-118.131v236.238z" fill="#333"/></svg>