<svg class="icon" viewBox="0 0 1024 1024" xmlns="http://www.w3.org/2000/svg" width="200" height="200"><path d="M85.427 394.773h42.526v42.525H85.427zm0 42.525h42.526v42.526H85.427zm0 42.902h42.526v42.525H85.427zm0 42.525h42.526v42.526H85.427zm0 42.526h42.526v42.526H85.427zm0 42.902h42.526v42.525H85.427zm21.075 42.525h42.526v42.526h-42.526zm42.902 0h42.525v42.526h-42.525zm42.525-21.45h42.526v42.525h-42.526zm.001-42.526h42.525v42.525h-42.526zm0-42.526h42.525v42.526h-42.526zm0-42.901h42.525V543.8h-42.526zm0-42.526h42.525v42.526h-42.526zm0-42.526h42.525v42.526h-42.526zm0-42.901h42.525v42.525h-42.526zm0-42.526h42.525v42.526h-42.526zm21.45-42.902h42.526v42.526H213.38zm42.526 0h42.525v42.526h-42.525zm42.902 21.451h42.525v42.526h-42.525zm0 42.526h42.525v42.525h-42.525zm0 42.902h42.525v42.525h-42.525zm0 42.525h42.525v42.526h-42.525zm42.525 0h42.526v42.526h-42.526zm42.526 0h42.525v42.526H383.86zm42.902 0h42.525v42.526h-42.525zm42.525 0h42.526v42.526h-42.526zM298.808 480.2h42.525v42.525h-42.525zm0 42.525h42.525v42.526h-42.525zm42.525 21.451h42.526v42.526h-42.526zm42.526 0h42.525v42.526H383.86zm42.902 0h42.525v42.526h-42.525zm42.525 0h42.526v42.526h-42.526z" fill="#2c2c2c"/><path d="M298.808 565.251h42.525v42.526h-42.525zm0 42.902h42.525v42.525h-42.525zm0 42.525h42.525v42.526h-42.525zm-21.451 42.902h42.525v42.526h-42.525zm-42.526 0h42.526v42.526H234.83zm-42.902-21.45h42.526v42.525h-42.526zm-42.525-320.26h42.525v42.526h-42.525zm-42.902 0h42.526v42.526h-42.526zm789.545 42.903h42.526v42.525h-42.526zm0 42.525h42.526v42.526h-42.526zm0 42.902h42.526v42.525h-42.526zm0 42.525h42.526v42.526h-42.526zm0 42.526h42.526v42.526h-42.526zm0 42.902h42.526v42.525h-42.526zm-21.45 42.525h42.525v42.526h-42.526zm-42.526 0h42.525v42.526h-42.525zm-42.526-21.451h42.526v42.526h-42.526zm0-42.525h42.526v42.525h-42.526zm0-42.526h42.526v42.526h-42.526zm0-42.901h42.526V543.8h-42.526zm0-42.526h42.526v42.526h-42.526zm0-42.526h42.526v42.526h-42.526zm0-42.901h42.526v42.525h-42.526zm0-42.526h42.526v42.526h-42.526zm-21.45-42.902h42.525v42.526h-42.526zm-42.526 0h42.525v42.526H725.57zm-42.902 21.451h42.525v42.526h-42.525zm0 42.526h42.525v42.525h-42.525zm0 42.902h42.525v42.525h-42.525zm0 42.525h42.525v42.526h-42.525zm-42.526 0h42.526v42.526H640.14zm-42.902 0h42.526v42.526h-42.526z" fill="#2c2c2c"/><path d="M554.714 437.298h42.525v42.526h-42.525zm-42.526 0h42.526v42.526h-42.526zM682.667 480.2h42.525v42.525h-42.525zm0 42.525h42.525v42.526h-42.525zm-42.526 21.451h42.526v42.526H640.14zm-42.902 0h42.526v42.526h-42.526zm-42.525 0h42.525v42.526h-42.525zm-42.526 0h42.526v42.526h-42.526zm170.479 21.075h42.525v42.526h-42.525zm0 42.902h42.525v42.525h-42.525zm0 42.525h42.525v42.526h-42.525zm21.45 42.902h42.526v42.526h-42.525zm42.526 0h42.526v42.526h-42.526zm42.902-21.45h42.526v42.525h-42.526zm42.526-320.26h42.525v42.526h-42.525zm42.525 0h42.526v42.526h-42.526z" fill="#2c2c2c"/></svg>