<svg class="icon" viewBox="0 0 1024 1024" xmlns="http://www.w3.org/2000/svg" width="200" height="200"><path d="M120.124 60.63h296.752c3.636 0 7.227.73 10.763 2.192h.094c3.496 1.456 6.571 3.496 9.187 6.112l31.635 31.635c2.611 2.61 4.652 5.685 6.112 9.187v.094c1.459 3.53 2.193 7.122 2.193 10.764v296.751c0 3.637-.73 7.228-2.193 10.764v.094c-1.458 3.497-3.497 6.573-6.112 9.187l-31.635 31.635c-2.614 2.615-5.69 4.654-9.187 6.111h-.094c-3.536 1.463-7.127 2.194-10.763 2.194H120.124c-3.642 0-7.233-.734-10.764-2.194h-.094c-3.502-1.459-6.576-3.5-9.187-6.111L68.444 437.41c-2.616-2.616-4.656-5.692-6.111-9.187v-.094c-1.463-3.536-2.193-7.127-2.193-10.764V120.614c0-3.642.733-7.233 2.193-10.764v-.094c1.459-3.499 3.497-6.573 6.111-9.187l31.635-31.635c2.615-2.615 5.688-4.652 9.187-6.112h.094c3.53-1.459 7.122-2.193 10.764-2.193zm288.548 48.165H128.328l-20.023 20.022v280.344l20.023 20.023h280.344l20.022-20.023V128.817l-20.022-20.022zM606.29 60.629h296.752c3.642 0 7.233.734 10.764 2.193h.094c3.498 1.46 6.572 3.497 9.187 6.112l31.634 31.635c2.615 2.614 4.653 5.688 6.112 9.187v.094c1.46 3.53 2.193 7.122 2.193 10.764v296.751c0 3.637-.73 7.228-2.193 10.764v.094c-1.456 3.495-3.495 6.57-6.112 9.187l-31.634 31.635c-2.612 2.611-5.685 4.652-9.187 6.111h-.094c-3.531 1.46-7.122 2.194-10.764 2.194H606.29c-3.637 0-7.228-.73-10.764-2.194h-.094c-3.497-1.457-6.572-3.496-9.187-6.111L554.61 437.41c-2.614-2.614-4.654-5.69-6.111-9.187v-.094c-1.463-3.536-2.193-7.127-2.193-10.764V120.614c0-3.642.734-7.233 2.193-10.764v-.094c1.459-3.502 3.5-6.576 6.111-9.187l31.635-31.635c2.616-2.616 5.692-4.656 9.187-6.112h.094c3.536-1.462 7.127-2.193 10.764-2.193zm288.548 48.166H614.494l-20.023 20.022v280.344l20.023 20.023h280.344l20.022-20.023V128.817l-20.022-20.022zm-774.714 437.61h296.752c3.636 0 7.227.73 10.763 2.193h.094c3.497 1.457 6.573 3.497 9.187 6.111l31.635 31.635c2.615 2.615 4.654 5.69 6.112 9.187v.094c1.462 3.536 2.193 7.127 2.193 10.764V903.14c0 3.642-.734 7.233-2.193 10.764v.094c-1.46 3.502-3.5 6.575-6.112 9.186L436.92 954.82c-2.616 2.617-5.691 4.656-9.187 6.112h-.094c-3.536 1.462-7.127 2.193-10.763 2.193H120.124c-3.642 0-7.233-.734-10.764-2.193h-.094c-3.499-1.46-6.572-3.497-9.187-6.112l-31.635-31.635c-2.614-2.614-4.652-5.688-6.111-9.186v-.094c-1.46-3.531-2.193-7.122-2.193-10.764V606.389c0-3.637.73-7.228 2.193-10.764v-.094c1.455-3.495 3.495-6.57 6.111-9.187l31.635-31.635c2.611-2.61 5.685-4.652 9.187-6.111h.094c3.53-1.46 7.122-2.193 10.764-2.193zm288.548 48.165H128.328l-20.023 20.023v280.344l20.023 20.022h280.344l20.022-20.022V614.593l-20.022-20.023zm197.618-48.165h296.752c3.642 0 7.233.734 10.764 2.193h.094c3.502 1.459 6.575 3.5 9.187 6.111l31.634 31.635c2.617 2.616 4.656 5.692 6.112 9.187v.094c1.462 3.536 2.193 7.127 2.193 10.764V903.14c0 3.642-.734 7.233-2.193 10.764v.094c-1.46 3.498-3.497 6.572-6.112 9.186l-31.634 31.635c-2.615 2.615-5.689 4.653-9.187 6.112h-.094c-3.531 1.459-7.122 2.193-10.764 2.193H606.29c-3.637 0-7.228-.73-10.764-2.193h-.094c-3.495-1.456-6.57-3.495-9.187-6.112l-31.635-31.635c-2.61-2.61-4.652-5.684-6.111-9.186v-.094c-1.46-3.531-2.193-7.122-2.193-10.764V606.389c0-3.637.73-7.228 2.193-10.764v-.094c1.457-3.497 3.497-6.572 6.111-9.187l31.635-31.635c2.615-2.614 5.69-4.654 9.187-6.111h.094c3.536-1.463 7.127-2.193 10.764-2.193zm288.548 48.165H614.494l-20.023 20.023v280.344l20.023 20.022h280.344l20.022-20.022V614.593l-20.022-20.023z" fill="#2c2c2c"/></svg>